<?xml version="1.0" encoding="UTF-8"?> <svg xmlns="http://www.w3.org/2000/svg" width="139.999" height="36" viewBox="0 0 139.999 36"><g id="Group_3" data-name="Group 3" transform="translate(-479 -222)"><path id="Path_1" data-name="Path 1" d="M370.212,382.146h.146v20.446h-5.6v-9.3l-4.579,3.734-4.608-3.734v9.3H350V382.146h.117l10.062,8.283Zm11.579,7.233,3.646-6.971h6.65l-7.35,12.542v7.641h-5.892v-7.641l-7.35-12.542h6.65Zm24.3-6.971v4.929h-6.942v3h5.862v4.783h-5.862v7.467h-5.833V382.408ZM418.658,382a11.671,11.671,0,0,1,5.629,1.429,10.424,10.424,0,0,1,3.792,3.792,10.9,10.9,0,0,1,0,10.587,9.925,9.925,0,0,1-3.792,3.763,11.743,11.743,0,0,1-11.229,0,9.987,9.987,0,0,1-3.762-3.763,10.906,10.906,0,0,1,0-10.587,10.5,10.5,0,0,1,3.762-3.792A11.614,11.614,0,0,1,418.658,382Zm0,5.337a4.8,4.8,0,0,0-2.567.729,5.062,5.062,0,0,0-1.692,1.925,5.322,5.322,0,0,0-.612,2.508,5.381,5.381,0,0,0,.612,2.537,5.13,5.13,0,0,0,1.692,1.9,4.477,4.477,0,0,0,2.567.729,4.615,4.615,0,0,0,2.6-.729,5.136,5.136,0,0,0,1.692-1.9,5.59,5.59,0,0,0,.583-2.537,5.528,5.528,0,0,0-.583-2.508,5.067,5.067,0,0,0-1.692-1.925A4.948,4.948,0,0,0,418.658,387.337Zm20.271.612,3.674-5.542h6.533l-7.117,10.033,7.146,10.15h-6.533l-3.7-5.57-3.676,5.57H428.72l7.146-10.15-7.117-10.033h6.534Z" transform="translate(169.833 -153)" fill="#000" fill-rule="evenodd"></path><g id="Group_1" data-name="Group 1" transform="translate(479 222)"><path id="Path_2" data-name="Path 2" d="M295,382.676,280,370v14.934q.075,5.629,2.655,8.329L295,406l12.345-12.737q2.58-2.7,2.655-8.329V370Z" transform="translate(-280 -370)" fill="#f74614" fill-rule="evenodd"></path><path id="Path_3" data-name="Path 3" d="M301.378,391.127q7.74,6.834,4.455,13.835l-4.455,9.488-4.455-9.488Q293.638,397.961,301.378,391.127Z" transform="translate(-286.378 -378.451)" fill="#f74614" fill-rule="evenodd"></path><path id="Path_4" data-name="Path 4" d="M295,382.676q-7.74,6.834-4.455,13.835L295,406l-12.345-12.737q-2.58-2.7-2.655-8.329V370Z" transform="translate(-280 -370)" fill="#fc661b" fill-rule="evenodd"></path><path id="Path_5" data-name="Path 5" d="M305,406l4.455-9.488q3.285-7-4.455-13.835L320,370v14.934q-.076,5.629-2.655,8.329Z" transform="translate(-290 -370)" fill="#e73604" fill-rule="evenodd"></path></g></g></svg>